<?xml version="1.0" encoding="UTF-8" standalone="no"?>
<svg width="16px" height="14px" viewBox="0 0 16 14" version="1.1" xmlns="http://www.w3.org/2000/svg" xmlns:xlink="http://www.w3.org/1999/xlink" xmlns:sketch="http://www.bohemiancoding.com/sketch/ns">
    <!-- Generator: Sketch 3.3.2 (12043) - http://www.bohemiancoding.com/sketch -->
    <title>Transport</title>
    <desc>Created with Sketch.</desc>
    <defs></defs>
    <g id="Page-1" stroke="none" stroke-width="1" fill="none" fill-rule="evenodd" sketch:type="MSPage">
        <g id="ProjectAnalysisOverview-Copy" sketch:type="MSArtboardGroup" transform="translate(-878.000000, -747.000000)" fill="#A4A092">
            <g id="Transport" sketch:type="MSLayerGroup" transform="translate(877.910145, 747.534352)">
                <path d="M14.63875,4.39224486 L13.4092,1.15239795 C13.17925,0.532193873 12.67675,0.00443877547 11.72575,0 L9.99175005,0 L7.02820008,0 L5.26405009,0 C4.3174001,0.00443877547 3.81490011,0.532193873 3.58075011,1.15239795 L2.35090012,4.39224486 C1.86265012,4.45653057 0.99850013,5.04198975 1.00000013,6.15107138 L1.00000013,10.2762244 L2.19985012,10.2762244 L2.19985012,11.5930101 C2.19685012,13.2163774 4.4482001,13.1970917 4.4476001,11.5930101 L4.4476001,10.2762244 L8.50000007,10.2762244 L12.5422,10.2762244 L12.5422,11.5930101 C12.54715,13.1970917 14.7985,13.2163774 14.8,11.5930101 L14.8,10.2762244 L16,10.2762244 L16,6.15107138 C15.99625,5.04198975 15.1315,4.45653057 14.63875,4.39224486 L14.63875,4.39224486 Z M3.35905011,7.78683667 C2.78395011,7.78852034 2.31835012,7.29903055 2.32075012,6.69704076 C2.31835012,6.09091831 2.78395011,5.60096934 3.35905011,5.60602036 C3.9323501,5.60096934 4.3979501,6.09091831 4.3972001,6.69704076 C4.3979501,7.29903055 3.9322001,7.78836728 3.35905011,7.78683667 L3.35905011,7.78683667 Z M8.50000007,4.36178568 L8.48995007,4.36178568 L3.63115011,4.36178568 L4.5584501,1.81056121 C4.6703501,1.44841835 4.8440501,1.1892857 5.25430009,1.18301019 L8.48995007,1.18301019 L8.50000007,1.18301019 L11.746,1.18301019 C12.14995,1.1892857 12.3241,1.44826529 12.4414,1.81056121 L13.36885,4.36178568 L8.50000007,4.36178568 L8.50000007,4.36178568 Z M13.6411,7.78683667 C13.06195,7.78852034 12.59605,7.29903055 12.5929,6.69704076 C12.59605,6.09091831 13.06195,5.60096934 13.6411,5.60602036 C14.21035,5.60096934 14.6758,6.09091831 14.6794,6.69704076 C14.6758,7.29903055 14.21035,7.78836728 13.6411,7.78683667 L13.6411,7.78683667 Z" id="Shape" sketch:type="MSShapeGroup"></path>
            </g>
        </g>
    </g>
</svg>