<?xml version="1.0" encoding="UTF-8" standalone="no"?>
<svg width="17px" height="16px" viewBox="0 0 17 16" version="1.1" xmlns="http://www.w3.org/2000/svg" xmlns:xlink="http://www.w3.org/1999/xlink" xmlns:sketch="http://www.bohemiancoding.com/sketch/ns">
    <!-- Generator: Sketch 3.3.2 (12043) - http://www.bohemiancoding.com/sketch -->
    <title>Waste Copy</title>
    <desc>Created with Sketch.</desc>
    <defs></defs>
    <g id="Page-1" stroke="none" stroke-width="1" fill="none" fill-rule="evenodd" sketch:type="MSPage">
        <g id="ProjectAnalysisOverview-Copy" sketch:type="MSArtboardGroup" transform="translate(-762.000000, -747.000000)" fill="#A39F92">
            <g id="Waste-Copy" sketch:type="MSLayerGroup" transform="translate(762.922001, 747.560000)">
                <path d="M4.57653,8.159045 L5.270155,8.583435 C5.38718,8.583435 5.446235,8.535075 5.446235,8.438355 C5.446235,8.37651 5.418025,8.290485 5.363465,8.17966 L3.83098,5.301155 L0.43462,5.384235 C0.28272,5.391365 0.206925,5.47057 0.206925,5.622315 C0.206925,5.65688 0.25513,5.705085 0.35185,5.76724 L1.056015,6.19163 L0.310465,7.35103 C0.10354,7.682575 0,7.955685 0,8.16943 C0,8.36318 0.06851,8.58049 0.206925,8.821825 L2.51596,12.849345 C2.460625,12.594215 2.43319,12.352415 2.43319,12.12441 C2.43319,11.717845 2.560445,11.317015 2.81604,10.92347 L4.57653,8.159045 L4.57653,8.159045 Z" id="Shape" sketch:type="MSShapeGroup"></path>
                <path d="M5.467005,5.80878 L7.37211,2.85789 C6.66066,1.23597 5.90488,0.42439 5.10446,0.42439 C4.621015,0.42439 4.29722,0.559395 4.131525,0.828165 L2.329495,3.70698 L5.467005,5.80878 L5.467005,5.80878 Z" id="Shape" sketch:type="MSShapeGroup"></path>
                <path d="M3.913905,13.80182 L7.589575,13.80182 L7.589575,9.98138 L4.048445,9.98138 C3.613515,10.602465 3.340715,11.02422 3.23051,11.24463 C3.05071,11.59648 2.96143,11.955925 2.96143,12.321105 C2.96143,13.30861 3.27856,13.80182 3.913905,13.80182 L3.913905,13.80182 L3.913905,13.80182 Z" id="Shape" sketch:type="MSShapeGroup"></path>
                <path d="M11.482865,5.104615 L13.11858,2.350265 C13.173605,2.25401 13.20135,2.15357 13.20135,2.050185 C13.20135,1.925875 13.159965,1.86372 13.07735,1.86372 C13.09037,1.86372 13.03581,1.88449 12.911655,1.925875 L12.166105,2.267495 L11.482865,0.911245 C11.178755,0.303955 10.57162,0 9.660375,0 L5.405005,0 C5.92255,0.15903 6.2744,0.314185 6.460865,0.46593 C6.89595,0.81127 7.340955,1.459945 7.7965,2.41242 L8.645745,4.193525 L8.01381,4.493915 C7.95181,4.521815 7.92081,4.576685 7.92081,4.659455 C7.92081,4.762995 7.986065,4.822205 8.117505,4.835535 L11.482865,5.104615 L11.482865,5.104615 Z" id="Shape" sketch:type="MSShapeGroup"></path>
                <path d="M13.118425,13.23266 L15.5,8.904595 C15.147995,9.30527 14.764835,9.574505 14.35083,9.7123 C14.01944,9.82297 13.545915,9.877995 12.93196,9.877995 L10.28146,9.877995 L10.28146,9.328985 C10.28146,9.11524 10.229535,9.00798 10.125995,9.00798 C10.04989,9.00798 9.9944,9.03619 9.960455,9.090905 L8.283355,12.00041 L10.022765,14.67199 C10.15405,14.87225 10.26751,14.951455 10.364385,14.90976 C10.46064,14.882325 10.509465,14.830865 10.509465,14.75476 L10.509465,13.84336 L11.97964,13.84336 C12.51811,13.84336 12.89755,13.64 13.118425,13.23266 L13.118425,13.23266 L13.118425,13.23266 Z" id="Shape" sketch:type="MSShapeGroup"></path>
                <path d="M12.08318,9.328985 L13.66759,9.328985 C14.046875,9.328985 14.440265,9.163445 14.84776,8.83221 C15.28269,8.48718 15.500155,8.121225 15.500155,7.734345 C15.500155,7.555475 15.440945,7.37924 15.32392,7.206415 L13.43974,4.328065 L10.19838,6.212865 L12.08318,9.328985 L12.08318,9.328985 Z" id="Shape" sketch:type="MSShapeGroup"></path>
            </g>
        </g>
    </g>
</svg>