<?xml version="1.0" encoding="UTF-8" standalone="no"?>
<svg width="36px" height="34px" viewBox="0 0 36 34" version="1.1" xmlns="http://www.w3.org/2000/svg" xmlns:xlink="http://www.w3.org/1999/xlink" xmlns:sketch="http://www.bohemiancoding.com/sketch/ns">
    <!-- Generator: Sketch 3.3.2 (12043) - http://www.bohemiancoding.com/sketch -->
    <title>account</title>
    <desc>Created with Sketch.</desc>
    <defs>
        <path d="M29.2544357,28.3734003 C32.1848681,25.4733788 34,21.4487203 34,17 C34,8.16150109 26.836556,1 18,1 C9.16150109,1 2,8.163444 2,17 C2,21.4493276 3.81532175,25.4736793 6.74556511,28.3733987 C7.98511882,25.9618471 12.5537176,24.1724138 18,24.1724138 C23.4462835,24.1724138 28.0148832,25.9618479 29.2544357,28.3734003 Z M18,22.3777491 C19.8685356,22.3777485 23.6429047,19.8513346 23.6429047,16.7348444 C23.6429047,13.6183542 24.753654,7.42914744 18,7.42914744 C11.246346,7.42914744 12.3570953,13.6183542 12.3570953,16.7348444 C12.3570953,19.8513346 16.1314644,22.3777497 18,22.3777491 Z" id="path-1"></path>
        <rect id="path-3" x="2" y="1" width="32" height="32" rx="80"></rect>
    </defs>
    <g id="Page-1" stroke="none" stroke-width="1" fill="none" fill-rule="evenodd" sketch:type="MSPage">
        <g id="account" sketch:type="MSArtboardGroup">
            <mask id="mask-2" sketch:name="Rectangle 17" fill="white">
                <use xlink:href="#path-1"></use>
            </mask>
            <use id="Rectangle-17" stroke="#4A4A4A" stroke-width="2" fill="#4A4A4A" sketch:type="MSShapeGroup" xlink:href="#path-1"></use>
            <mask id="mask-4" sketch:name="Rectangle 23" fill="white">
                <use xlink:href="#path-3"></use>
            </mask>
            <use id="Rectangle-23" stroke="#4A4A4A" stroke-width="2" sketch:type="MSShapeGroup" xlink:href="#path-3"></use>
        </g>
    </g>
</svg>