<?xml version="1.0" encoding="UTF-8" standalone="no"?>
<svg width="21px" height="15px" viewBox="0 0 21 15" version="1.1" xmlns="http://www.w3.org/2000/svg" xmlns:xlink="http://www.w3.org/1999/xlink">
    <defs></defs>
    <g id="Page-1" stroke="none" stroke-width="1" fill="none" fill-rule="evenodd">
        <g id="data-input" fill="#BEB9B3">
            <path d="M7.69669914,12.8033009 C10.6256313,15.732233 15.3743687,15.732233 18.3033009,12.8033009 C21.232233,9.87436867 21.232233,5.12563133 18.3033009,2.19669914 C15.3743687,-0.732233047 10.6256313,-0.732233047 7.69669914,2.19669914 L9.1109127,3.6109127 C11.2587963,1.4630291 14.7412037,1.4630291 16.8890873,3.6109127 C19.0369709,5.75879631 19.0369709,9.24120369 16.8890873,11.3890873 C14.7412037,13.5369709 11.2587963,13.5369709 9.1109127,11.3890873 L7.69669914,12.8033009 Z M-0.192388155,5 L6.80761184,5 L6.80761184,10 L-0.192388155,10 L-0.192388155,5 Z M6.80761184,12 L6.80761184,3 L11.8076118,7.5 L6.80761184,12 Z" id="Shape"></path>
        </g>
    </g>
</svg>