<?xml version="1.0" encoding="UTF-8" standalone="no"?>
<svg width="34px" height="32px" viewBox="0 0 34 32" version="1.1" xmlns="http://www.w3.org/2000/svg" xmlns:xlink="http://www.w3.org/1999/xlink" xmlns:sketch="http://www.bohemiancoding.com/sketch/ns">
    <!-- Generator: Sketch 3.3.2 (12043) - http://www.bohemiancoding.com/sketch -->
    <title>data-analysis</title>
    <desc>Created with Sketch.</desc>
    <defs></defs>
    <g id="Page-1" stroke="none" stroke-width="1" fill="none" fill-rule="evenodd" sketch:type="MSPage">
        <g id="data-analysis" sketch:type="MSArtboardGroup" fill="#4A4A4A">
            <path d="M9,7.25605856 L9,5.50130749 C9,4.66694629 8.32842712,4 7.5,4 C6.66579723,4 6,4.67215826 6,5.50130749 L6,7.25605856 C4.25221144,7.87381317 3,9.54067176 3,11.5 C3,13.4593282 4.25221144,15.1261868 6,15.7439414 L6,26.4986925 C6,27.3330537 6.67157288,28 7.5,28 C8.33420277,28 9,27.3278417 9,26.4986925 L9,15.7439414 C10.7477886,15.1261868 12,13.4593282 12,11.5 C12,9.54067176 10.7477886,7.87381317 9,7.25605856 L9,7.25605856 Z M7.5,14 C8.88071187,14 10,12.8807119 10,11.5 C10,10.1192881 8.88071187,9 7.5,9 C6.11928813,9 5,10.1192881 5,11.5 C5,12.8807119 6.11928813,14 7.5,14 Z" id="Rectangle-158" sketch:type="MSShapeGroup"></path>
            <path d="M29,7.25605856 L29,5.50130749 C29,4.66694629 28.3284271,4 27.5,4 C26.6657972,4 26,4.67215826 26,5.50130749 L26,7.25605856 C24.2522114,7.87381317 23,9.54067176 23,11.5 C23,13.4593282 24.2522114,15.1261868 26,15.7439414 L26,26.4986925 C26,27.3330537 26.6715729,28 27.5,28 C28.3342028,28 29,27.3278417 29,26.4986925 L29,15.7439414 C30.7477886,15.1261868 32,13.4593282 32,11.5 C32,9.54067176 30.7477886,7.87381317 29,7.25605856 L29,7.25605856 Z M27.5,14 C28.8807119,14 30,12.8807119 30,11.5 C30,10.1192881 28.8807119,9 27.5,9 C26.1192881,9 25,10.1192881 25,11.5 C25,12.8807119 26.1192881,14 27.5,14 Z" id="Rectangle-158-Copy-3" sketch:type="MSShapeGroup"></path>
            <path d="M19,7.25605856 L19,5.50130749 C19,4.66694629 18.3284271,4 17.5,4 C16.6657972,4 16,4.67215826 16,5.50130749 L16,7.25605856 C14.2522114,7.87381317 13,9.54067176 13,11.5 C13,13.4593282 14.2522114,15.1261868 16,15.7439414 L16,26.4986925 C16,27.3330537 16.6715729,28 17.5,28 C18.3342028,28 19,27.3278417 19,26.4986925 L19,15.7439414 C20.7477886,15.1261868 22,13.4593282 22,11.5 C22,9.54067176 20.7477886,7.87381317 19,7.25605856 L19,7.25605856 Z M17.5,14 C18.8807119,14 20,12.8807119 20,11.5 C20,10.1192881 18.8807119,9 17.5,9 C16.1192881,9 15,10.1192881 15,11.5 C15,12.8807119 16.1192881,14 17.5,14 Z" id="Rectangle-158-Copy-4" sketch:type="MSShapeGroup" transform="translate(17.500000, 16.000000) scale(1, -1) translate(-17.500000, -16.000000) "></path>
        </g>
    </g>
</svg>