<?xml version="1.0" encoding="utf-8"?>
<!-- Generator: Adobe Illustrator 19.0.1, SVG Export Plug-In . SVG Version: 6.00 Build 0)  -->
<svg version="1.1" id="Layer_1" xmlns="http://www.w3.org/2000/svg" xmlns:xlink="http://www.w3.org/1999/xlink" x="0px" y="0px"
	 viewBox="-44 10 44 44" style="enable-background:new -44 10 44 44;" xml:space="preserve">
<style type="text/css">
	.st0{fill:#AFCA0B;}
	.st1{fill:#7A726B;}
	.st2{fill:#C4B8AC;}
	.st3{fill:#C6C5BA;}
</style>
<g>
	<path class="st0" d="M-15,22.3c1.5-2.1,5.1-7,5.9-8.1c-1.9-1.3-3.9-2.3-6.1-3l-3.1,9.5L-15,22.3z"/>
	<path class="st1" d="M-30.5,20.3c-2.5-3.4-3.9-5.4-4.4-6c-1.9,1.4-3.5,3-4.8,4.8c2.6,1.9,6,4.4,6,4.4L-30.5,20.3z"/>
	<path class="st2" d="M-24.5,20.3c0,0-1.1-5.3-2.1-9.7c-2.2,0.5-4.4,1.3-6.4,2.4l5,8.6L-24.5,20.3z"/>
	<path class="st1" d="M-18.5,15.3c0,0,0.5-2.5,1-4.8c-1.5-0.3-3-0.5-4.6-0.5c-0.8,0-1.5,0-2.3,0.1l0.5,4.8L-18.5,15.3z"/>
	<path class="st3" d="M-39,22.2c0,0-0.6-0.3-2-1.2c-1.1,2-2,4.1-2.5,6.4c0.3,0.1,0.9,0.2,2.3,0.5L-39,22.2z"/>
	<path class="st2" d="M-35.2,30.6l-8.6-0.9c-0.1,0.8-0.1,1.5-0.1,2.3c0,1.6,0.2,3.1,0.5,4.6c4.3-0.9,8.5-1.8,8.5-1.8L-35.2,30.6z"/>
	<path class="st1" d="M-32.2,35.3c0,0-8.5,2.8-10.7,3.5c0.8,2.2,1.8,4.2,3.2,6.1c1.2-0.9,7.6-5.5,9.1-6.6L-32.2,35.3z"/>
	<path class="st3" d="M-5,22.2c0,0,0.4-0.2,2-1.2c-1.2-2-2.6-3.8-4.3-5.3c-0.3,0.3-0.8,0.9-1.5,1.7L-5,22.2z"/>
	<path class="st1" d="M-12.6,31c3-0.3,11-1.2,12.4-1.3c-0.2-2.3-0.9-4.6-1.8-6.6l-11.4,5.1L-12.6,31z"/>
	<path class="st2" d="M-7,36.9c0,0,3.4,1.1,5.8,1.9c0.7-2.1,1.1-4.4,1.1-6.8c-1,0-5,0-6.1,0L-7,36.9z"/>
	<path class="st1" d="M-12.2,40.9c0,0,3.6,3.3,6.4,5.8C-4.3,45-3,43.1-2.1,41c-0.7-0.3-3.1-1.4-7.9-3.5L-12.2,40.9z"/>
	<path class="st2" d="M-16.1,45.3c0,0,1.1,2.5,3,6.8c2.1-0.9,4-2.2,5.7-3.7c-0.6-0.7-3-3.3-5-5.5L-16.1,45.3z"/>
	<path class="st3" d="M-22,44c0,0,0,6.4,0,10l0,0c2.4,0,4.6-0.4,6.8-1.1l-3.1-9.5L-22,44z"/>
	<path class="st1" d="M-26.3,41.8c0,0-3,6.7-4.6,10.3c2.1,0.9,4.3,1.5,6.6,1.8c0.1-1.4,0.9-8.9,1.2-11.2L-26.3,41.8z"/>
	<path class="st2" d="M-31.8,40.9c0,0-2.1,1.9-6.4,5.8c1.5,1.7,3.3,3.2,5.3,4.3c0.6-1,3.2-5.6,4.3-7.5L-31.8,40.9z"/>
</g>
</svg>
