<?xml version="1.0" encoding="utf-8"?>
<!-- Generator: Adobe Illustrator 19.0.1, SVG Export Plug-In . SVG Version: 6.00 Build 0)  -->
<svg version="1.1" id="Layer_1" xmlns="http://www.w3.org/2000/svg" xmlns:xlink="http://www.w3.org/1999/xlink" x="0px" y="0px"
	 viewBox="3 10 140 44" style="enable-background:new 3 10 140 44;" xml:space="preserve">
<style type="text/css">
	.st0{fill:#493B2C;}
</style>
<g>
	<path class="st0" d="M15,26.2c-1.4-0.5-2.8-0.8-4.1-0.8c-1.8,0-3.3,0.6-4.5,1.7c-1.2,1.2-1.9,2.8-1.9,5c0,2.1,0.6,3.7,1.7,4.9
		c1.1,1.2,2.7,1.8,4.6,1.8c1.1,0,2.2-0.2,3.3-0.5V32h1.5v7.1c-0.8,0.3-1.6,0.5-2.4,0.6c-0.9,0.1-1.7,0.2-2.5,0.2
		c-2.3,0-4.2-0.7-5.5-2c-1.4-1.4-2.1-3.2-2.1-5.6c0-2.4,0.7-4.4,2.2-5.9c1.5-1.5,3.4-2.3,5.9-2.3c1.4,0,2.8,0.2,4.2,0.6L15,26.2z"/>
	<path class="st0" d="M46.7,39.7l-5.9-7.3l-0.1,7.3h-1.5V24.4c0.7,0,1.3,0,1.8,0c0.6,0,1.1,0,1.6,0c1.5,0,2.8,0.3,3.7,0.9
		c0.9,0.6,1.3,1.6,1.3,2.9c0,1.4-0.5,2.5-1.5,3.2c-1,0.8-2.2,1.2-3.8,1.2l1.4,1.6l4.8,5.7L46.7,39.7z M42.3,25.5l-1.6,0.1v5.8h1.5
		c1.3,0,2.2-0.3,2.9-0.8c0.7-0.6,1-1.3,1-2.2c0-1-0.3-1.8-1-2.2C44.6,25.7,43.6,25.5,42.3,25.5z"/>
	<path class="st0" d="M71.3,39.7V24.4h7.6v1.2h-6.2v5.7h5.9v1.2h-5.9v6.2h6.2v1.2L71.3,39.7L71.3,39.7z"/>
	<path class="st0" d="M104.9,39.9c-1.2,0-2.2-0.1-3.1-0.4l0.1-1.5c0.5,0.2,1,0.3,1.6,0.4c0.5,0.1,1.1,0.1,1.6,0.1
		c1.2,0,2.1-0.2,2.8-0.7c0.7-0.5,1.1-1.3,1.1-2.3s-0.6-1.9-1.9-2.5c-1.2-0.5-2.4-1-3.5-1.6c-1.3-0.8-1.9-1.8-1.9-3.2
		c0-1.2,0.5-2.2,1.4-3c0.9-0.8,2.2-1.2,3.8-1.2c0.5,0,1,0,1.4,0.1c0.4,0,0.9,0.1,1.4,0.2l-0.1,1.4c-0.9-0.3-1.9-0.4-2.8-0.4
		c-1.2,0-2.1,0.3-2.7,0.8c-0.6,0.5-0.9,1.2-0.9,2.1c0,1,0.6,1.8,1.8,2.4c1.2,0.6,2.4,1.1,3.6,1.6c1.3,0.8,1.9,1.8,1.9,3.2
		c0,1.4-0.5,2.5-1.5,3.3C108,39.5,106.6,39.9,104.9,39.9z"/>
	<path class="st0" d="M137.1,39.8h-3.6V24.4h4.1c1.6,0,2.9,0.3,3.7,1c0.8,0.6,1.2,1.5,1.2,2.7c0,0.9-0.3,1.6-0.8,2.3
		c-0.5,0.7-1.3,1.1-2.2,1.4c1.1,0.2,2,0.6,2.6,1.3c0.6,0.7,0.8,1.5,0.8,2.4c0,1.1-0.4,2.2-1.3,3.1C140.8,39.3,139.3,39.8,137.1,39.8
		z M137.4,25.5H135v5.8h1.6c1.4,0,2.5-0.3,3.3-0.8c0.8-0.5,1.1-1.3,1.1-2.3c0-0.9-0.3-1.5-0.8-2C139.7,25.7,138.7,25.5,137.4,25.5z
		 M136.6,32.3H135v6.2c0.2,0,0.6,0.1,0.9,0.1c0.4,0,0.8,0,1.3,0c1.4,0,2.4-0.3,3.1-0.9c0.7-0.6,1-1.4,1-2.4c0-1.1-0.4-1.9-1.3-2.3
		C139.2,32.5,138.1,32.3,136.6,32.3z"/>
</g>
</svg>
