<?xml version="1.0" encoding="UTF-8" standalone="no"?>
<svg width="16px" height="34px" viewBox="0 0 16 34" version="1.1" xmlns="http://www.w3.org/2000/svg" xmlns:xlink="http://www.w3.org/1999/xlink" xmlns:sketch="http://www.bohemiancoding.com/sketch/ns">
    <!-- Generator: Sketch 3.3.2 (12043) - http://www.bohemiancoding.com/sketch -->
    <title>Capa_1_1_</title>
    <desc>Created with Sketch.</desc>
    <defs></defs>
    <g id="Page-1" stroke="none" stroke-width="1" fill="none" fill-rule="evenodd" sketch:type="MSPage">
        <g id="ProjectAnalysisOverview-Copy" sketch:type="MSArtboardGroup" transform="translate(-419.000000, -560.000000)" fill="#9B9B9B">
            <g id="Human" sketch:type="MSLayerGroup" transform="translate(409.664230, 559.348547)">
                <g id="Group" sketch:type="MSShapeGroup">
                    <g id="Capa_1_1_" transform="translate(9.834386, 0.700000)">
                        <g id="Group">
                            <path d="M7.63183474,6.02875 L7.63183474,6.03645 C7.65817684,6.03645 7.68311404,6.03295 7.70910491,6.0326 C7.73544702,6.03295 7.76003298,6.03645 7.78707754,6.03645 L7.78707754,6.02875 C9.35741825,5.9479 10.6049804,4.65745 10.6049804,3.0744 C10.6049804,1.491 9.35741825,0.20195 7.78707754,0.1218 L7.78707754,0.11375 C7.76003298,0.11375 7.73544702,0.11725 7.70910491,0.1176 C7.68311404,0.11725 7.65817684,0.11375 7.63183474,0.11375 L7.63183474,0.12145 C6.06079158,0.2016 4.81322947,1.4903 4.81322947,3.07405 C4.81322947,4.6571 6.06114281,5.9479 7.63183474,6.02875 L7.63183474,6.02875 Z" id="Shape"></path>
                            <path d="M15.0557425,17.87905 L11.1971509,7.3766 C11.1623793,7.2786 11.1103975,7.1925 11.0520937,7.1113 C11.0506888,7.10885 11.0489326,7.1071 11.0475277,7.10465 C11.0250491,7.0735 11.0043267,7.0406 10.9790382,7.0119 L10.9667453,7.0119 C10.8438154,6.8733 10.6917337,6.7746 10.5189295,6.73085 L10.5238467,6.7046 L10.4560596,6.7046 L10.3190807,6.7046 L10.2519961,6.7046 L5.20239018,6.7046 L5.13495439,6.7046 L4.99797544,6.7046 L4.93018842,6.7046 L4.93475439,6.73085 C4.76124772,6.7746 4.60951719,6.87365 4.48588491,7.0119 L4.47359193,7.0119 C4.44900596,7.04095 4.42828351,7.07385 4.40580491,7.10465 C4.40404877,7.10675 4.40264386,7.10885 4.40123895,7.1113 C4.34363754,7.19215 4.29165579,7.27895 4.25653298,7.3766 L0.397941404,17.87905 C0.180531228,18.48 0.493826667,19.1429 1.09653404,19.35955 C1.69994386,19.5762 2.36516982,19.26435 2.58222877,18.66305 L5.00640491,12.4439 L4.56385754,19.15095 L2.36025263,31.8199 C2.18639474,32.5969 2.35041825,33.33295 3.36722351,33.46525 C4.38332632,33.59825 5.34850105,33.0757 5.52130526,32.29905 L7.72631509,21.3143 L9.93062246,32.29905 C10.1044804,33.0757 11.0693039,33.59895 12.0847042,33.46525 C13.1018607,33.33295 13.2658842,32.5969 13.0920263,31.8199 L10.8887726,19.15025 L10.4465765,12.44355 L12.8700502,18.6627 C13.0878116,19.26435 13.7526863,19.5762 14.3571498,19.35955 C14.959506,19.1422 15.2728014,18.4807 15.0557425,17.87905 L15.0557425,17.87905 Z" id="Shape"></path>
                        </g>
                    </g>
                </g>
            </g>
        </g>
    </g>
</svg>