<?xml version="1.0" encoding="UTF-8" standalone="no"?>
<svg width="395px" height="532px" viewBox="0 0 395 532" version="1.1" xmlns="http://www.w3.org/2000/svg" xmlns:xlink="http://www.w3.org/1999/xlink" xmlns:sketch="http://www.bohemiancoding.com/sketch/ns">
    <!-- Generator: Sketch 3.0.4 (8054) - http://www.bohemiancoding.com/sketch -->
    <title>Rectangle 60</title>
    <desc>Created with Sketch.</desc>
    <defs>
        <filter x="-50%" y="-50%" width="200%" height="200%" filterUnits="objectBoundingBox" id="filter-1">
            <feOffset dx="0" dy="0" in="SourceAlpha" result="shadowOffsetOuter1"></feOffset>
            <feGaussianBlur stdDeviation="3" in="shadowOffsetOuter1" result="shadowBlurOuter1"></feGaussianBlur>
            <feColorMatrix values="0 0 0 0 0.74133716   0 0 0 0 0.74133716   0 0 0 0 0.74133716  0 0 0 0.35 0" in="shadowBlurOuter1" type="matrix" result="shadowMatrixOuter1"></feColorMatrix>
            <feMerge>
                <feMergeNode in="shadowMatrixOuter1"></feMergeNode>
                <feMergeNode in="SourceGraphic"></feMergeNode>
            </feMerge>
        </filter>
    </defs>
    <g id="Wizard-3-Guides" stroke="none" stroke-width="1" fill="none" fill-rule="evenodd" sketch:type="MSPage">
        <path d="M202.992004,522.148699 L201.956048,522.148699 L201.956048,522.148699 L196.505195,527.056111 L191.054342,522.148699 L189.02358,522.148699 L183.572727,527.056111 L178.121875,522.148699 L178.121875,522.148699 L176.091112,522.148699 L176.091112,522.148699 L170.64026,527.056111 L165.189407,522.148699 L164.15345,522.148699 L158.702597,527.056111 L153.251745,522.148699 L153.251745,522.148699 L151.220983,522.148699 L151.220983,522.148699 L145.77013,527.056111 L140.319277,522.148699 L139.28332,522.148699 L133.832468,527.056111 L128.381615,522.148699 L128.381615,522.148699 L126.350853,522.148699 L126.350853,522.148699 L120.9,527.056111 L115.449147,522.148699 L114.41319,522.148699 L108.962338,527.056111 L103.511485,522.148699 L103.511485,522.148699 L101.480723,522.148699 L101.480723,522.148699 L96.0298701,527.056111 L90.5790174,522.148699 L89.5430605,522.148699 L84.0922078,527.056111 L78.6413551,522.148699 L78.6413551,522.148699 L76.610593,522.148699 L71.1597403,527.056111 L65.7088875,522.148699 L65.7088875,522.148699 L64.6729307,522.148699 L64.6729307,522.148699 L59.2220779,527.056111 L53.7712252,522.148699 L53.7300735,522.148699 L48.2792208,527.056111 L42.8283681,522.148699 L42.8283681,522.148699 L42.7872164,522.148699 L42.7872164,522.148699 L37.3363636,527.056111 L31.8855109,522.148699 L30.849554,522.148699 L25.3987013,527.056111 L19.9478486,522.148699 L19.9478486,522.148699 L17.9170865,522.148699 L17.9170865,522.148699 L12.4662338,527.056111 L7.01538104,522.148699 L6,522.148699 L6,266 L6,9.85130112 L7.01538104,9.85130112 L7.01538104,9.85130112 L12.4662338,4.94388906 L17.9170865,9.85130112 L19.9478486,9.85130112 L25.3987013,4.94388906 L30.849554,9.85130112 L30.849554,9.85130112 L31.8855109,9.85130112 L31.8855109,9.85130112 L37.3363636,4.94388906 L42.7872164,9.85130112 L42.8283681,9.85130112 L48.2792208,4.94388906 L53.7300735,9.85130112 L53.7300735,9.85130112 L53.7712252,9.85130112 L53.7712252,9.85130112 L59.2220779,4.94388906 L64.6729307,9.85130112 L65.7088875,9.85130112 L71.1597403,4.94388906 L76.610593,9.85130112 L76.610593,9.85130112 L78.6413551,9.85130112 L84.0922078,4.94388906 L89.5430605,9.85130112 L89.5430605,9.85130112 L90.5790174,9.85130112 L90.5790174,9.85130112 L96.0298701,4.94388906 L101.480723,9.85130112 L103.511485,9.85130112 L108.962338,4.94388906 L114.41319,9.85130112 L114.41319,9.85130112 L115.449147,9.85130112 L115.449147,9.85130112 L120.9,4.94388906 L126.350853,9.85130112 L128.381615,9.85130112 L133.832468,4.94388906 L139.28332,9.85130112 L139.28332,9.85130112 L140.319277,9.85130112 L140.319277,9.85130112 L145.77013,4.94388906 L151.220983,9.85130112 L153.251745,9.85130112 L158.702597,4.94388906 L164.15345,9.85130112 L164.15345,9.85130112 L165.189407,9.85130112 L165.189407,9.85130112 L170.64026,4.94388906 L176.091112,9.85130112 L178.121875,9.85130112 L183.572727,4.94388906 L189.02358,9.85130112 L189.02358,9.85130112 L191.054342,9.85130112 L191.054342,9.85130112 L196.505195,4.94388906 L201.956048,9.85130112 L202.992004,9.85130112 L208.442857,4.94388906 L213.89371,9.85130112 L213.89371,9.85130112 L214.929667,9.85130112 L220.380519,4.94388906 L225.831372,9.85130112 L225.831372,9.85130112 L227.862134,9.85130112 L227.862134,9.85130112 L233.312987,4.94388906 L238.76384,9.85130112 L239.799797,9.85130112 L245.250649,4.94388906 L250.701502,9.85130112 L250.701502,9.85130112 L252.732264,9.85130112 L252.732264,9.85130112 L258.183117,4.94388906 L263.63397,9.85130112 L264.669926,9.85130112 L270.120779,4.94388906 L275.571632,9.85130112 L275.571632,9.85130112 L277.602394,9.85130112 L277.602394,9.85130112 L283.053247,4.94388906 L288.504099,9.85130112 L289.540056,9.85130112 L294.990909,4.94388906 L300.441762,9.85130112 L300.441762,9.85130112 L302.472524,9.85130112 L302.472524,9.85130112 L307.923377,4.94388906 L313.374229,9.85130112 L314.410186,9.85130112 L319.861039,4.94388906 L325.311892,9.85130112 L325.311892,9.85130112 L327.342654,9.85130112 L327.342654,9.85130112 L332.793506,4.94388906 L338.244359,9.85130112 L339.280316,9.85130112 L344.731169,4.94388906 L350.182022,9.85130112 L350.182022,9.85130112 L352.212784,9.85130112 L357.663636,4.94388906 L363.114489,9.85130112 L365.145251,9.85130112 L370.596104,4.94388906 L376.046957,9.85130112 L376.046957,9.85130112 L377.082914,9.85130112 L377.082914,9.85130112 L382.533766,4.94388906 L387.984619,9.85130112 L389,9.85130112 L389,266 L389,522.148699 L387.984619,522.148699 L387.984619,522.148699 L382.533766,527.056111 L377.082914,522.148699 L376.046957,522.148699 L370.596104,527.056111 L365.145251,522.148699 L365.145251,522.148699 L363.114489,522.148699 L363.114489,522.148699 L357.663636,527.056111 L352.212784,522.148699 L350.182022,522.148699 L344.731169,527.056111 L339.280316,522.148699 L339.280316,522.148699 L338.244359,522.148699 L338.244359,522.148699 L332.793506,527.056111 L327.342654,522.148699 L325.311892,522.148699 L319.861039,527.056111 L314.410186,522.148699 L314.410186,522.148699 L313.374229,522.148699 L313.374229,522.148699 L307.923377,527.056111 L302.472524,522.148699 L300.441762,522.148699 L294.990909,527.056111 L289.540056,522.148699 L289.540056,522.148699 L288.504099,522.148699 L288.504099,522.148699 L283.053247,527.056111 L277.602394,522.148699 L275.571632,522.148699 L270.120779,527.056111 L264.669926,522.148699 L264.669926,522.148699 L263.63397,522.148699 L263.63397,522.148699 L258.183117,527.056111 L252.732264,522.148699 L250.701502,522.148699 L245.250649,527.056111 L239.799797,522.148699 L239.799797,522.148699 L238.76384,522.148699 L238.76384,522.148699 L233.312987,527.056111 L227.862134,522.148699 L225.831372,522.148699 L220.380519,527.056111 L214.929667,522.148699 L214.929667,522.148699 L213.89371,522.148699 L208.442857,527.056111 L202.992004,522.148699 Z" id="Rectangle-60" fill="#FFFFFF" filter="url(#filter-1)" sketch:type="MSShapeGroup"></path>
    </g>
</svg>