<?xml version="1.0" encoding="UTF-8" standalone="no"?>
<svg width="351px" height="360px" viewBox="0 0 351 360" version="1.1" xmlns="http://www.w3.org/2000/svg" xmlns:xlink="http://www.w3.org/1999/xlink" xmlns:sketch="http://www.bohemiancoding.com/sketch/ns">
    <!-- Generator: Sketch 3.0.4 (8054) - http://www.bohemiancoding.com/sketch -->
    <title>Rectangle 73</title>
    <desc>Created with Sketch.</desc>
    <defs></defs>
    <g id="Payment-Copy" stroke="none" stroke-width="1" fill="none" fill-rule="evenodd" sketch:type="MSPage">
        <path d="M187.094937,354.835443 L187.905063,354.835443 L187.905063,354.835443 L193.5,360 L199.094937,354.835443 L200.905063,354.835443 L206.5,360 L212.094937,354.835443 L213.905063,354.835443 L213.905063,354.835443 L219.5,360 L225.094937,354.835443 L225.905063,354.835443 L231.5,360 L237.094937,354.835443 L237.094937,354.835443 L238.905063,354.835443 L244.5,360 L250.094937,354.835443 L250.905063,354.835443 L256.5,360 L262.094937,354.835443 L262.094937,354.835443 L263.905063,354.835443 L263.905063,354.835443 L269.5,360 L275.094937,354.835443 L275.905063,354.835443 L281.5,360 L287.094937,354.835443 L288.905063,354.835443 L288.905063,354.835443 L294.5,360 L300.094937,354.835443 L300.905063,354.835443 L306.5,360 L312.094937,354.835443 L313.905063,354.835443 L313.905063,354.835443 L319.5,360 L325.094937,354.835443 L325.905063,354.835443 L331.5,360 L337.094937,354.835443 L337.094937,354.835443 L338.905063,354.835443 L338.905063,354.835443 L344.5,360 L350.094937,354.835443 L351,354.835443 L351,0 L0,0 L0,354.835443 L0.905063291,354.835443 L6.5,360 L12.0949367,354.835443 L12.0949367,354.835443 L12.9050633,354.835443 L12.9050633,354.835443 L18.5,360 L24.0949367,354.835443 L25.9050633,354.835443 L31.5,360 L37.0949367,354.835443 L38.9050633,354.835443 L44.5,360 L50.0949367,354.835443 L50.9050633,354.835443 L56.5,360 L62.0949367,354.835443 L62.0949367,354.835443 L63.9050633,354.835443 L63.9050633,354.835443 L69.5,360 L75.0949367,354.835443 L75.9050633,354.835443 L81.5,360 L87.0949367,354.835443 L87.0949367,354.835443 L88.9050633,354.835443 L88.9050633,354.835443 L94.5,360 L100.094937,354.835443 L100.905063,354.835443 L106.5,360 L112.094937,354.835443 L113.905063,354.835443 L113.905063,354.835443 L119.5,360 L125.094937,354.835443 L125.905063,354.835443 L131.5,360 L137.094937,354.835443 L137.094937,354.835443 L138.905063,354.835443 L138.905063,354.835443 L144.5,360 L150.094937,354.835443 L150.905063,354.835443 L156.5,360 L162.094937,354.835443 L162.094937,354.835443 L163.905063,354.835443 L169.5,360 L175.094937,354.835443 L175.905063,354.835443 L181.5,360 L187.094937,354.835443 Z" id="Rectangle-73" stroke="#D8E0E3" opacity="0.982101213" fill="#FFFFFF" sketch:type="MSShapeGroup"></path>
    </g>
</svg>