<?xml version="1.0" encoding="utf-8"?>
<!-- Generator: Adobe Illustrator 16.0.0, SVG Export Plug-In . SVG Version: 6.00 Build 0)  -->
<!DOCTYPE svg PUBLIC "-//W3C//DTD SVG 1.1//EN" "http://www.w3.org/Graphics/SVG/1.1/DTD/svg11.dtd">
<svg version="1.1" id="Layer_1" xmlns="http://www.w3.org/2000/svg" xmlns:xlink="http://www.w3.org/1999/xlink" x="0px" y="0px"
	 width="170px" height="170px" viewBox="0 0 170 170" enable-background="new 0 0 170 170" xml:space="preserve">
<path fill="#FFFFFF" d="M14.175,85.961c0-37.521,30.417-67.938,67.938-67.938c37.521,0,67.939,30.417,67.939,67.938"/>
<g>
	<circle fill="#8A898A" cx="85.263" cy="84.265" r="62.59"/>
	<path opacity="0.2" fill="#FFFFFF" d="M132.04,99.057c1.004-0.493,13.303-4.452,10.471-12.121
		c-1.983-5.391-5.804,0.997-8.466-1.089c-0.852-0.665-1.375-1.188,2.345-4.978c3.76-3.81,4.876-6.501,5.263-8.841
		c0.365-2.341,0.365-4.113-1.176-5.021c-1.527-0.892-3.57,1.482-4.169-0.979c-0.378-1.323,0.111-2.068,0.114-4.441
		c0-2.593-2.53-9.044-8.428-6.861c-3.812,1.399-1.794,8.283-2.774,9.582c-1.013,1.338-1.868-2.748-4.018-3.389
		c-2.475-0.733-4.195,1.662-4.171,3.879c0.016,2.209,1.404,6.358,1.853,7.948c0.257,1.271,0.915,4.726,0.502,5.743
		c-0.627,1.526-1.166,1.026-2.583-0.91c-1.245-1.724-0.584-1.004-2.773-3.756c-2.74-3.53-4.402,1.356-4.592,4.614
		c-0.208,3.262,2.171,14.634,2.124,16.135c-0.16,6.814-3.786-1.002-3.897-1.182c-2.376-3.784-6.952-2.021-5.528,2.052
		c2.607,7.42,4.946,13.82,2.47,20.168c-0.318,0.85-0.771,2.332-1.372,3.811c20.081-19.56,25.612-46.644,25.612-46.674
		c0.078-0.277,0.557-0.542,0.803-0.461c0.249,0.073,0.364,0.609,0.293,0.89c-0.016,0.045-6.557,40.272-41.578,60.806
		c-0.772,0.447-0.856-0.028-1.007-0.76c0.154-6.379,0.417-10.711,2.682-12.11c18.855-11.706,12.723-17.101,8.822-17.894
		c-3.916-0.804-6.154-7.485-0.76-10.386c9.5-5.586,14.352-25.523,2.569-21.163c-1.079,0.088-8.836,4.303-2.002-7.92
		c6.47-12.227,4.479-23.109-2.232-18.364c-1.761,1.235-6.743,6.75-5.757-1.231c1.794-12.104-1.083-16.418-4.477-17.208
		c0,0-0.347-0.061-0.642-0.094l-0.299,0.016v-0.03c-0.213-0.021-0.957,0.108-0.957,0.108c-3.391,0.79-6.258,5.104-4.48,17.208
		c0.997,7.981-3.987,2.466-5.738,1.231c-6.725-4.746-8.71,6.137-2.234,18.364c6.823,12.223-0.926,8.008-2.011,7.92
		c-11.784-4.361-6.917,15.577,2.576,21.163c5.399,2.9,3.157,9.582-0.765,10.386c-3.895,0.793-10.032,6.188,8.826,17.894
		c2.266,1.399,2.536,5.761,2.706,12.157c-0.145,0.713-0.265,1.148-1.026,0.713c-35.017-20.533-41.567-60.761-41.574-60.806
		c-0.07-0.281,0.116-0.817,0.353-0.89c0.253-0.081,0.639,0.374,0.717,0.651c0.008,0.036,5.539,26.924,25.629,46.484
		c-0.598-1.479-1.047-2.961-1.377-3.811c-2.46-6.348-0.13-12.748,2.476-20.168c1.428-4.073-3.136-5.836-5.507-2.052
		c-0.126,0.18-3.75,7.996-3.924,1.182c-0.033-1.501,2.345-12.873,2.139-16.135c-0.191-3.258-1.861-8.144-4.585-4.614
		c-2.202,2.751-1.549,2.032-2.8,3.756c-1.394,1.937-1.947,2.436-2.57,0.91c-0.406-1.017,0.245-4.472,0.506-5.743
		c0.455-1.589,1.833-5.738,1.869-7.948c0.01-2.218-1.723-4.612-4.19-3.879c-2.133,0.641-3.003,4.728-4.021,3.389
		c-0.968-1.299,1.055-8.183-2.771-9.582c-5.904-2.184-8.442,4.268-8.426,6.861c0,2.374,0.49,3.118,0.107,4.441
		c-0.593,2.461-2.632,0.088-4.176,0.979c-1.525,0.909-1.529,2.68-1.168,5.021c0.387,2.34,1.517,5.031,5.256,8.841
		c3.738,3.79,3.221,4.313,2.361,4.978c-2.671,2.086-6.496-4.302-8.472,1.089c-2.816,7.669,9.473,11.628,10.488,12.121
		c2.625,1.315,4.073,4.333,0.47,3.434c-1.45-0.349-3.655-1.459-5.391,0.568c-4.581,5.338,7.351,14.642,15.279,16.359
		c7.935,1.711,15.036,4.868,18.017,6.311c2.96,1.396,15.547,10.425,16.429,14.086c0.228,1.085,0.751,1.884,1.987,1.884
		c1.2,0,1.723-0.71,1.948-1.812c0.809-3.57,13.446-12.762,16.41-14.157c2.987-1.442,10.086-4.6,18.007-6.311
		c7.933-1.718,19.868-11.021,15.284-16.359c-1.729-2.027-3.933-0.917-5.386-0.568C127.956,103.39,129.402,100.372,132.04,99.057"/>
	<path fill="#8A898A" d="M1.18,84.265C1.184,37.825,38.822,0.188,85.263,0.183l0,0c46.438,0.006,84.078,37.643,84.081,84.083l0,0
		c-0.003,46.441-37.643,84.076-84.081,84.079l0,0C38.822,168.341,1.184,130.706,1.18,84.265L1.18,84.265z M39.899,38.9
		C28.281,50.532,21.112,66.528,21.108,84.265l0,0c0.004,17.736,7.173,33.734,18.791,45.364l0,0
		c11.627,11.619,27.628,18.787,45.364,18.788l0,0c17.735-0.001,33.732-7.169,45.361-18.788l0,0
		c11.621-11.63,18.789-27.628,18.79-45.364l0,0c-0.001-17.737-7.169-33.733-18.79-45.365l0,0
		c-11.629-11.618-27.626-18.787-45.361-18.789l0,0C67.527,20.114,51.526,27.282,39.899,38.9L39.899,38.9z"/>
	<path fill="none" stroke="#FFFFFF" stroke-width="3.6906" d="M85.348,71.857"/>
	<g>
		<path fill="#FFFFFF" d="M27.934,127.861l-4.907,3.482l-0.697-0.981l3.94-2.797l-1.747-2.46l0.967-0.687L27.934,127.861z"/>
		<path fill="#FFFFFF" d="M23.782,121.689l-5.244,2.939l-2.041-3.639l1.026-0.577l1.452,2.592l0.907-0.509l-0.844-1.505l1.019-0.57
			l0.844,1.507l1.267-0.711l-1.517-2.703l1.025-0.576L23.782,121.689z"/>
		<path fill="#FFFFFF" d="M18.581,111.065l-1.057,0.953l0.847,2.031l1.418-0.08l0.496,1.19l-6.438,0.188l-0.45-1.081l4.673-4.422
			L18.581,111.065z M15.77,113.615c-0.278,0.246-0.565,0.496-0.749,0.638c0.23-0.03,0.609-0.058,0.98-0.083l1.157-0.062
			l-0.529-1.269L15.77,113.615z"/>
		<path fill="#FFFFFF" d="M16.54,105.021l0.489,1.729l-5.786,1.643l-0.514-1.812c-0.469-1.652-0.04-3.098,2.077-3.697
			C14.84,102.306,16.117,103.534,16.54,105.021z M11.865,106.305l0.174,0.61l3.539-1.002l-0.162-0.571
			c-0.345-1.216-1.212-1.567-2.272-1.268C11.961,104.41,11.517,105.079,11.865,106.305z"/>
		<path fill="#FFFFFF" d="M14.996,98.733l-5.933,0.973L8.39,95.584l1.161-0.188l0.48,2.933l1.025-0.167l-0.278-1.704l1.153-0.189
			l0.278,1.704l1.433-0.233l-0.501-3.062l1.162-0.188L14.996,98.733z"/>
		<path fill="#FFFFFF" d="M13.755,87.589l-2.105,1.183l0.061,1.212l2.163-0.111l0.062,1.201l-6.006,0.308l-0.143-2.796
			c-0.059-1.134,0.519-2.101,1.797-2.167c0.901-0.046,1.488,0.312,1.827,1.06l2.274-1.27L13.755,87.589z M8.953,88.55l0.082,1.571
			l1.543-0.08l-0.08-1.57c-0.029-0.559-0.302-0.845-0.826-0.818C9.133,87.681,8.927,88.018,8.953,88.55z"/>
		<path fill="#FFFFFF" d="M13.951,80.757c-0.061,1.003-0.533,1.853-1.229,2.267l-0.72-0.914c0.515-0.39,0.745-0.919,0.779-1.493
			c0.043-0.712-0.134-1.06-0.588-1.086c-0.386-0.023-0.571,0.173-0.896,1.29c-0.324,1.09-0.722,1.841-1.907,1.77
			c-1.089-0.065-1.7-1.067-1.629-2.251c0.057-0.935,0.451-1.6,1.077-2.131l0.788,0.917c-0.418,0.363-0.667,0.778-0.7,1.328
			c-0.04,0.644,0.222,0.874,0.489,0.891c0.377,0.022,0.513-0.228,0.793-1.166c0.281-0.939,0.671-1.975,1.975-1.896
			C13.322,78.351,14.051,79.118,13.951,80.757z"/>
		<path fill="#FFFFFF" d="M15.032,71.386l-2.487-0.438l-0.428,2.429l2.487,0.439L14.395,75l-5.924-1.043l0.209-1.185l2.267,0.399
			l0.428-2.429l-2.268-0.4l0.209-1.185l5.922,1.044L15.032,71.386z"/>
		<path fill="#FFFFFF" d="M16.156,66.573l-5.797-1.606l0.322-1.159l5.796,1.605L16.156,66.573z"/>
		<path fill="#FFFFFF" d="M16.475,58.729l-0.468,1.237l1.992,0.756l-0.426,1.125l-5.625-2.132l0.932-2.459
			c0.402-1.061,1.321-1.713,2.518-1.26C16.699,56.49,16.917,57.565,16.475,58.729z M13.958,57.711l-0.49,1.294l1.445,0.547
			l0.496-1.31c0.198-0.522,0.064-0.895-0.427-1.081C14.494,56.977,14.147,57.213,13.958,57.711z"/>
		<path fill="#FFFFFF" d="M22.708,50.443l-5.225-2.975l0.594-1.045l5.225,2.976L22.708,50.443z"/>
		<path fill="#FFFFFF" d="M27.407,43.092l-3.957-0.078c-0.267-0.008-0.626-0.019-0.798-0.045c0.183,0.128,0.812,0.55,1.086,0.743
			l2.168,1.52l-0.682,0.972l-4.925-3.456l0.661-0.943l3.828,0.082c0.267,0.008,0.626,0.019,0.798,0.045
			c-0.183-0.128-0.813-0.549-1.087-0.742l-2.083-1.461l0.682-0.972l4.926,3.457L27.407,43.092z"/>
		<path fill="#FFFFFF" d="M33.356,35.937l-4.219-4.281l2.972-2.928l0.826,0.837l-2.117,2.086l0.73,0.74l1.229-1.21l0.82,0.832
			l-1.23,1.211l1.019,1.034l2.208-2.175l0.825,0.838L33.356,35.937z"/>
		<path fill="#FFFFFF" d="M41.958,28.277l-3.767-1.207c-0.252-0.084-0.595-0.198-0.75-0.271c0.138,0.175,0.62,0.757,0.829,1.021
			l1.64,2.075l-0.931,0.736l-3.728-4.717l0.903-0.714l3.643,1.172c0.253,0.084,0.594,0.199,0.75,0.271
			c-0.138-0.175-0.62-0.758-0.828-1.021l-1.576-1.994l0.93-0.735l3.728,4.717L41.958,28.277z"/>
		<path fill="#FFFFFF" d="M45.865,25.498l-3.166-5.115l3.553-2.199l0.62,1.001l-2.529,1.565l0.547,0.884l1.469-0.909l0.615,0.994
			l-1.47,0.91l0.765,1.235l2.638-1.633l0.62,1.001L45.865,25.498z"/>
		<path fill="#FFFFFF" d="M55.714,20.1l-1.895-1.501l-1.097,0.518l0.925,1.96l-1.088,0.513l-2.568-5.443l2.534-1.196
			c1.027-0.483,2.143-0.316,2.689,0.842c0.384,0.816,0.277,1.495-0.287,2.094l2.04,1.623L55.714,20.1z M53,16.019l-1.423,0.67
			l0.66,1.399l1.424-0.67c0.504-0.238,0.666-0.6,0.443-1.075C53.873,15.854,53.482,15.791,53,16.019z"/>
		<path fill="#FFFFFF" d="M62.398,17.594c-1.49,0.501-2.874-0.302-3.479-2.101c-0.582-1.733,0.055-3.288,1.545-3.789
			c1.164-0.391,1.965-0.053,2.635,0.7l-0.932,0.812c-0.353-0.352-0.72-0.582-1.34-0.374c-0.854,0.287-1.091,1.2-0.735,2.258
			c0.353,1.05,1.109,1.656,1.963,1.369c0.782-0.262,0.928-0.719,0.825-1.237l-0.903,0.303l-0.357-1.066l2.042-0.686l0.251,0.748
			C64.406,15.997,63.717,17.152,62.398,17.594z"/>
		<path fill="#FFFFFF" d="M70.063,12.974l0.499,2.326l-1.176,0.252l-0.493-2.301l-2.993-3.1l1.352-0.29l1.129,1.216
			c0.286,0.308,0.73,0.819,0.886,1.013c0.062-0.241,0.251-0.871,0.391-1.287l0.533-1.573l1.335-0.287L70.063,12.974z"/>
		<path fill="#FFFFFF" d="M84.139,13.831l-0.471-0.475c-0.459,0.403-1.029,0.619-1.734,0.642c-1.228,0.041-1.993-0.45-2.03-1.533
			c-0.026-0.841,0.42-1.364,1.173-1.767l-0.161-0.167c-0.33-0.342-0.549-0.722-0.565-1.203c-0.032-0.979,0.725-1.513,1.738-1.545
			c0.74-0.025,1.229,0.183,1.817,0.567L83.36,9.237c-0.405-0.287-0.84-0.402-1.269-0.388c-0.353,0.012-0.563,0.165-0.554,0.414
			c0.009,0.258,0.144,0.426,0.339,0.642l1.721,1.836c0.128-0.28,0.255-0.611,0.388-1.011l0.982,0.277
			c-0.169,0.59-0.376,1.104-0.629,1.526l1.178,1.251L84.139,13.831z M81.735,11.382c-0.463,0.265-0.642,0.58-0.63,0.941
			c0.013,0.387,0.331,0.625,0.932,0.605c0.37-0.011,0.677-0.108,0.92-0.296L81.735,11.382z"/>
		<path fill="#FFFFFF" d="M93.046,14.264l0.846-5.95l4.131,0.585l-0.165,1.165l-2.942-0.417l-0.146,1.028l1.709,0.243l-0.165,1.156
			l-1.708-0.242l-0.204,1.437l3.07,0.436l-0.166,1.165L93.046,14.264z"/>
		<path fill="#FFFFFF" d="M104.341,16.482l-1.311-3.734c-0.085-0.252-0.201-0.593-0.237-0.763c-0.056,0.216-0.229,0.952-0.314,1.277
			l-0.667,2.562l-1.148-0.298l1.516-5.824l1.114,0.29l1.265,3.615c0.085,0.254,0.199,0.595,0.234,0.764
			c0.057-0.216,0.23-0.953,0.315-1.277l0.641-2.462l1.148,0.299l-1.515,5.824L104.341,16.482z"/>
		<path fill="#FFFFFF" d="M111.568,18.956l-1.089-0.426l0.206-6.378l1.24,0.486l-0.217,3.652c-0.018,0.353-0.065,0.805-0.095,1.023
			c0.13-0.188,0.382-0.532,0.615-0.819l2.302-2.834l1.224,0.48L111.568,18.956z"/>
		<path fill="#FFFFFF" d="M116.467,21.145l2.702-5.371l1.075,0.542l-2.704,5.37L116.467,21.145z"/>
		<path fill="#FFFFFF" d="M123.781,25.298l0.239-2.406l-1.027-0.644l-1.149,1.836l-1.02-0.639l3.193-5.099l2.375,1.487
			c0.959,0.603,1.421,1.632,0.742,2.717c-0.479,0.765-1.109,1.041-1.916,0.889l-0.265,2.592L123.781,25.298z M125.748,20.812
			l-1.332-0.835l-0.82,1.311l1.333,0.835c0.474,0.297,0.865,0.238,1.144-0.206C126.359,21.457,126.202,21.095,125.748,20.812z"/>
		<path fill="#FFFFFF" d="M129.474,29.548c-1.28-1.027-1.242-2.627-0.096-4.054c1.146-1.427,2.698-1.811,3.978-0.784
			c1.28,1.027,1.242,2.626,0.096,4.054C132.306,30.192,130.752,30.576,129.474,29.548z M132.608,25.642
			c-0.757-0.608-1.594-0.21-2.267,0.627c-0.672,0.837-0.879,1.74-0.121,2.348c0.757,0.607,1.594,0.21,2.266-0.627
			C133.159,27.152,133.365,26.25,132.608,25.642z"/>
		<path fill="#FFFFFF" d="M136.791,36.144l0.797-3.872c0.058-0.261,0.134-0.613,0.19-0.776c-0.159,0.156-0.687,0.697-0.926,0.932
			l-1.889,1.852l-0.83-0.846l4.291-4.209l0.807,0.822l-0.777,3.745c-0.058,0.26-0.134,0.612-0.19,0.775
			c0.16-0.157,0.688-0.698,0.926-0.933l1.814-1.78l0.831,0.846l-4.292,4.209L136.791,36.144z"/>
		<path fill="#FFFFFF" d="M142.713,43.262l1.757-1.339c0.259-0.197,0.877-0.647,1.062-0.789c-0.231,0.068-0.682,0.185-1.049,0.27
			l-2.863,0.65l1.384-2.589c0.18-0.331,0.412-0.735,0.537-0.939c-0.185,0.14-0.781,0.618-1.042,0.815l-1.755,1.339l-0.713-0.936
			l4.779-3.646l0.705,0.922l-1.405,2.648c-0.173,0.327-0.425,0.747-0.549,0.938c0.225-0.074,0.677-0.204,1.045-0.289l2.899-0.688
			l0.718,0.942l-4.781,3.647L142.713,43.262z"/>
		<path fill="#FFFFFF" d="M145.49,47.365l5.188-3.048l2.116,3.602l-1.016,0.597l-1.507-2.565l-0.896,0.527l0.875,1.49l-1.009,0.592
			l-0.875-1.49l-1.253,0.736l1.573,2.677l-1.017,0.596L145.49,47.365z"/>
		<path fill="#FFFFFF" d="M150.785,57.624l2.112-3.348c0.145-0.225,0.34-0.526,0.451-0.66c-0.205,0.09-0.89,0.412-1.196,0.547
			l-2.423,1.07l-0.479-1.086l5.505-2.431l0.467,1.054l-2.05,3.236c-0.145,0.224-0.341,0.526-0.451,0.66
			c0.204-0.09,0.889-0.412,1.197-0.547l2.327-1.028l0.48,1.086l-5.507,2.431L150.785,57.624z"/>
		<path fill="#FFFFFF" d="M157.839,63.03l-4.61,1.435l-0.358-1.148l4.611-1.436l-0.514-1.648l1.133-0.352l1.384,4.447l-1.134,0.352
			L157.839,63.03z"/>
		<path fill="#FFFFFF" d="M155.172,72.541l1.221-0.726l-0.431-2.157l-1.407-0.2l-0.251-1.265l6.347,1.079l0.229,1.145l-5.449,3.42
			L155.172,72.541z M158.427,70.594c0.321-0.188,0.652-0.376,0.858-0.478c-0.23-0.017-0.607-0.063-0.977-0.112l-1.146-0.166
			l0.27,1.349L158.427,70.594z"/>
		<path fill="#FFFFFF" d="M155.835,77.067l5.997-0.508l0.102,1.199l-4.815,0.408l0.256,3.007l-1.184,0.101L155.835,77.067z"/>
		<path fill="#FFFFFF" d="M156.039,90.811l0.15-1.79l5.997,0.508l-0.16,1.876c-0.145,1.714-1.057,2.913-3.25,2.728
			C156.669,93.952,155.907,92.353,156.039,90.811z M160.865,91.262l0.055-0.634l-3.667-0.31l-0.05,0.591
			c-0.106,1.258,0.581,1.896,1.678,1.988C160.105,93.003,160.758,92.53,160.865,91.262z"/>
		<path fill="#FFFFFF" d="M155.261,97.256l5.896,1.18l-0.82,4.093l-1.153-0.23l0.584-2.915l-1.021-0.203l-0.338,1.691l-1.146-0.229
			l0.34-1.692l-1.425-0.284l-0.607,3.04l-1.154-0.231L155.261,97.256z"/>
		<path fill="#FFFFFF" d="M152.826,106.729c0.307-0.957,0.973-1.665,1.75-1.896l0.473,1.062c-0.593,0.253-0.946,0.708-1.12,1.257
			c-0.216,0.68-0.13,1.06,0.305,1.198c0.368,0.116,0.595-0.028,1.185-1.03c0.58-0.979,1.151-1.609,2.28-1.25
			c1.041,0.331,1.389,1.452,1.028,2.582c-0.283,0.892-0.827,1.442-1.564,1.801l-0.541-1.081c0.496-0.249,0.839-0.59,1.007-1.114
			c0.193-0.615-0.003-0.902-0.257-0.984c-0.361-0.114-0.553,0.095-1.056,0.936c-0.502,0.844-1.133,1.751-2.379,1.354
			C152.849,109.217,152.33,108.295,152.826,106.729z"/>
		<path fill="#FFFFFF" d="M150.938,112.2l5.543,2.331l-0.465,1.108l-5.544-2.332L150.938,112.2z"/>
		<path fill="#FFFFFF" d="M147.755,118.712c0.74-1.387,2.301-1.752,3.977-0.855c1.615,0.863,2.219,2.434,1.476,3.821
			c-0.578,1.085-1.395,1.39-2.401,1.301l0.123-1.233c0.5,0.016,0.925-0.068,1.232-0.646c0.426-0.795-0.027-1.624-1.015-2.151
			c-0.977-0.522-1.944-0.444-2.371,0.351c-0.389,0.728-0.181,1.162,0.249,1.47l0.45-0.843l0.993,0.532l-1.019,1.903l-0.697-0.375
			C147.388,121.257,147.098,119.939,147.755,118.712z"/>
		<path fill="#FFFFFF" d="M142.688,126.979l3.958,0.07c0.268,0.009,0.628,0.018,0.799,0.043c-0.184-0.128-0.813-0.547-1.089-0.739
			l-2.172-1.517l0.68-0.973l4.935,3.447l-0.658,0.944l-3.83-0.074c-0.268-0.008-0.628-0.018-0.799-0.042
			c0.183,0.128,0.812,0.547,1.088,0.738l2.087,1.458l-0.679,0.974l-4.937-3.447L142.688,126.979z"/>
	</g>
	<g>
		<path fill="#FFFFFF" d="M70.903,159.78"/>
	</g>
	<path fill="none" stroke="#8A898A" stroke-width="1.22" d="M1.18,84.265L1.18,84.265C1.184,37.825,38.822,0.188,85.263,0.183l0,0
		c46.438,0.006,84.078,37.643,84.081,84.083l0,0c-0.003,46.441-37.643,84.076-84.081,84.079l0,0
		C38.822,168.341,1.184,130.706,1.18,84.265"/>
	<g>
		<g>
			<path fill="#F2F2F2" d="M78.113,83.684"/>
			<path fill="#F2F2F2" d="M78.113,78.064"/>
			<path fill="#F2F2F2" d="M121.432,97.171"/>
			<path fill="#F2F2F2" d="M119.737,94.556"/>
			<path fill="none" d="M123.875,73.239c0-3.992-1.21-5.305-4.672-5.305h-2.26l1.168,0.961l-1.168-0.961v27.192h2.26
				c1.804,0,2.984-0.368,3.713-1.273l-0.731-0.764l0.731,0.764c0.673-0.83,0.959-2.113,0.959-4.025V73.239z"/>
		</g>
	</g>
</g>
</svg>
