<?xml version="1.0" encoding="UTF-8" standalone="no"?>
<svg width="170px" height="170px" viewBox="0 0 170 170" version="1.1" xmlns="http://www.w3.org/2000/svg" xmlns:xlink="http://www.w3.org/1999/xlink" xmlns:sketch="http://www.bohemiancoding.com/sketch/ns">
    <!-- Generator: Sketch 3.2.2 (9983) - http://www.bohemiancoding.com/sketch -->
    <title>score-puck</title>
    <desc>Created with Sketch.</desc>
    <defs></defs>
    <g id="Page-2" stroke="none" stroke-width="1" fill="none" fill-rule="evenodd" sketch:type="MSPage">
        <g id="score-puck" sketch:type="MSLayerGroup" transform="translate(1.000000, 1.000000)">
            <path d="M13.175,85.961 C13.175,48.44 43.592,18.023 81.113,18.023 C118.634,18.023 149.052,48.44 149.052,85.961" id="Shape" fill="#FFFFFF" sketch:type="MSShapeGroup"></path>
            <g id="Group" sketch:type="MSShapeGroup">
                <circle id="Oval" fill="#8A898A" cx="84.263" cy="84.265" r="62.59"></circle>
                <path d="M0.18,84.265 C0.184,37.825 37.822,0.188 84.263,0.183 L84.263,0.183 C130.701,0.189 168.341,37.826 168.344,84.266 L168.344,84.266 C168.341,130.707 130.701,168.342 84.263,168.345 L84.263,168.345 C37.822,168.341 0.184,130.706 0.18,84.265 L0.18,84.265 L0.18,84.265 Z M38.899,38.9 C27.281,50.532 20.112,66.528 20.108,84.265 L20.108,84.265 C20.112,102.001 27.281,117.999 38.899,129.629 L38.899,129.629 C50.526,141.248 66.527,148.416 84.263,148.417 L84.263,148.417 C101.998,148.416 117.995,141.248 129.624,129.629 L129.624,129.629 C141.245,117.999 148.413,102.001 148.414,84.265 L148.414,84.265 C148.413,66.528 141.245,50.532 129.624,38.9 L129.624,38.9 C117.995,27.282 101.998,20.113 84.263,20.111 L84.263,20.111 C66.527,20.114 50.526,27.282 38.899,38.9 L38.899,38.9 L38.899,38.9 Z" id="Shape" fill="#8A898A"></path>
                <path d="M0.18,84.265 L0.18,84.265 C0.184,37.825 37.822,0.188 84.263,0.183 L84.263,0.183 C130.701,0.189 168.341,37.826 168.344,84.266 L168.344,84.266 C168.341,130.707 130.701,168.342 84.263,168.345 L84.263,168.345 C37.822,168.341 0.184,130.706 0.18,84.265" id="Shape" stroke="#8A898A" stroke-width="1.22"></path>
                <g transform="translate(115.000000, 67.000000)" id="Shape">
                    <path d="M7.875,6.239 C7.875,2.247 6.665,0.934 3.203,0.934 L0.943,0.934 L2.111,1.895 L0.943,0.934 L0.943,28.126 L3.203,28.126 C5.007,28.126 6.187,27.758 6.916,26.853 L6.185,26.089 L6.916,26.853 C7.589,26.023 7.875,24.74 7.875,22.828 L7.875,6.239 L7.875,6.239 Z"></path>
                </g>
            </g>
        </g>
    </g>
</svg>