<?xml version="1.0" encoding="utf-8"?>
<!-- Generator: Adobe Illustrator 16.0.4, SVG Export Plug-In . SVG Version: 6.00 Build 0)  -->
<!DOCTYPE svg PUBLIC "-//W3C//DTD SVG 1.1//EN" "http://www.w3.org/Graphics/SVG/1.1/DTD/svg11.dtd">
<svg version="1.1" id="Layer_1" xmlns="http://www.w3.org/2000/svg" xmlns:xlink="http://www.w3.org/1999/xlink" x="0px" y="0px"
	 width="170px" height="170px" viewBox="0 0 170 170" enable-background="new 0 0 170 170" xml:space="preserve">
<g>
	<path fill="#FFFFFF" d="M37.021,51.503l-2.646,5.348h-1.303l-2.632-5.348v6.16h-2.184v-9.786h2.954l2.52,5.376l2.534-5.376h2.94
		v9.786h-2.185v-6.16H37.021z"/>
	<path fill="#FFFFFF" d="M49.984,56.312c-0.989,0.966-2.207,1.449-3.653,1.449c-1.447,0-2.665-0.483-3.654-1.449
		c-0.989-0.966-1.484-2.167-1.484-3.605c0-1.437,0.495-2.639,1.484-3.605c0.989-0.966,2.207-1.449,3.654-1.449
		c1.446,0,2.664,0.483,3.653,1.449c0.989,0.966,1.484,2.168,1.484,3.605C51.468,54.145,50.973,55.347,49.984,56.312z M49.243,52.714
		c0-0.873-0.28-1.617-0.841-2.233c-0.56-0.616-1.248-0.924-2.064-0.924s-1.505,0.308-2.065,0.924c-0.56,0.616-0.84,1.36-0.84,2.233
		s0.28,1.615,0.84,2.226c0.561,0.611,1.249,0.917,2.065,0.917s1.505-0.306,2.064-0.917C48.962,54.33,49.243,53.587,49.243,52.714z"
		/>
	<path fill="#FFFFFF" d="M55.662,49.831c-0.21,0.173-0.315,0.401-0.315,0.686c0,0.285,0.129,0.511,0.386,0.679
		c0.256,0.168,0.849,0.366,1.777,0.595c0.929,0.229,1.649,0.572,2.163,1.029c0.514,0.458,0.771,1.125,0.771,2.002
		c0,0.877-0.329,1.589-0.987,2.135s-1.523,0.819-2.597,0.819c-1.55,0-2.945-0.574-4.187-1.722l1.302-1.596
		c1.055,0.924,2.03,1.386,2.927,1.386c0.4,0,0.716-0.086,0.944-0.259c0.229-0.172,0.343-0.406,0.343-0.7
		c0-0.294-0.121-0.527-0.363-0.7c-0.243-0.172-0.724-0.348-1.442-0.525c-1.139-0.271-1.972-0.623-2.499-1.057
		c-0.527-0.434-0.791-1.115-0.791-2.044c0-0.929,0.334-1.645,1.001-2.149s1.5-0.756,2.499-0.756c0.653,0,1.307,0.112,1.96,0.336
		c0.653,0.224,1.223,0.541,1.708,0.952l-1.105,1.596c-0.85-0.644-1.728-0.966-2.633-0.966
		C56.159,49.572,55.872,49.658,55.662,49.831z"/>
	<path fill="#FFFFFF" d="M66.503,49.768v7.896H64.32v-7.896h-2.772v-1.89h7.729v1.89H66.503z"/>
	<path fill="#FFFFFF" d="M79.342,55.731c1.073,0,1.95-0.424,2.632-1.274l1.4,1.442c-1.111,1.251-2.42,1.876-3.928,1.876
		c-1.507,0-2.749-0.476-3.724-1.428c-0.976-0.952-1.463-2.154-1.463-3.605c0-1.451,0.497-2.662,1.491-3.633
		c0.993-0.97,2.209-1.456,3.646-1.456c1.605,0,2.949,0.611,4.032,1.834l-1.358,1.54c-0.69-0.858-1.549-1.288-2.576-1.288
		c-0.821,0-1.523,0.268-2.106,0.805c-0.584,0.537-0.875,1.26-0.875,2.17c0,0.91,0.275,1.641,0.826,2.191
		C77.89,55.455,78.558,55.731,79.342,55.731z"/>
	<path fill="#FFFFFF" d="M87.826,55.137c0.363,0.453,0.854,0.679,1.469,0.679c0.617,0,1.104-0.226,1.463-0.679
		c0.359-0.453,0.539-1.071,0.539-1.855v-5.404h2.186v5.474c0,1.419-0.393,2.508-1.176,3.269c-0.785,0.761-1.789,1.141-3.012,1.141
		s-2.229-0.383-3.016-1.148c-0.789-0.766-1.183-1.854-1.183-3.262v-5.474h2.183v5.404C87.279,54.065,87.461,54.684,87.826,55.137z"
		/>
	<path fill="#FFFFFF" d="M103.828,51.125c0,1.568-0.621,2.581-1.861,3.038l2.477,3.5h-2.688l-2.17-3.122h-1.512v3.122h-2.184v-9.786
		H99.6c1.521,0,2.607,0.257,3.256,0.77C103.504,49.161,103.828,49.987,103.828,51.125z M101.195,52.288
		c0.271-0.243,0.406-0.627,0.406-1.155c0-0.528-0.142-0.889-0.42-1.085c-0.279-0.196-0.771-0.294-1.472-0.294h-1.64v2.898h1.597
		C100.416,52.651,100.926,52.53,101.195,52.288z"/>
	<path fill="#FFFFFF" d="M114.145,51.125c0,1.568-0.619,2.581-1.858,3.038l2.479,3.5h-2.688l-2.173-3.122h-1.514v3.122h-2.184
		v-9.786h3.711c1.521,0,2.605,0.257,3.254,0.77C113.82,49.161,114.145,49.987,114.145,51.125z M111.514,52.288
		c0.271-0.243,0.406-0.627,0.406-1.155c0-0.528-0.141-0.889-0.42-1.085c-0.281-0.196-0.771-0.294-1.471-0.294h-1.639v2.898h1.598
		C110.734,52.651,111.242,52.53,111.514,52.288z"/>
	<path fill="#FFFFFF" d="M123.58,47.877v1.946h-4.871v2.016h4.381v1.862h-4.381v2.03h5.025v1.932h-7.209v-9.786H123.58z"/>
	<path fill="#FFFFFF" d="M132.668,47.877h2.184v9.786h-2.184l-4.662-6.132v6.132h-2.184v-9.786h2.043l4.803,6.3V47.877z"/>
	<path fill="#FFFFFF" d="M141.543,49.768v7.896h-2.184v-7.896h-2.773v-1.89h7.729v1.89H141.543z"/>
</g>
<circle fill="#F4F4F4" cx="85" cy="85" r="85"/>
<g>
	<path fill="#8C8B8B" d="M36.141,44.054l-2.646,5.348h-1.303l-2.632-5.348v6.16h-2.184v-9.786h2.954l2.52,5.376l2.534-5.376h2.94
		v9.786h-2.185V44.054z"/>
	<path fill="#8C8B8B" d="M49.104,48.863c-0.989,0.966-2.207,1.449-3.653,1.449c-1.447,0-2.665-0.483-3.654-1.449
		c-0.989-0.966-1.484-2.167-1.484-3.605c0-1.437,0.495-2.639,1.484-3.605s2.207-1.449,3.654-1.449c1.446,0,2.664,0.483,3.653,1.449
		s1.484,2.168,1.484,3.605C50.588,46.696,50.093,47.897,49.104,48.863z M48.362,45.265c0-0.873-0.28-1.617-0.841-2.233
		c-0.56-0.616-1.248-0.924-2.064-0.924s-1.505,0.308-2.065,0.924c-0.56,0.616-0.84,1.36-0.84,2.233c0,0.873,0.28,1.615,0.84,2.226
		c0.561,0.611,1.249,0.917,2.065,0.917s1.505-0.306,2.064-0.917C48.082,46.88,48.362,46.138,48.362,45.265z"/>
	<path fill="#8C8B8B" d="M54.781,42.381c-0.21,0.173-0.315,0.401-0.315,0.686s0.129,0.511,0.386,0.679
		c0.256,0.168,0.849,0.366,1.777,0.595c0.929,0.229,1.649,0.572,2.163,1.029c0.514,0.458,0.771,1.125,0.771,2.002
		s-0.329,1.589-0.987,2.135s-1.523,0.819-2.597,0.819c-1.55,0-2.945-0.574-4.187-1.722l1.302-1.596
		c1.055,0.924,2.03,1.386,2.927,1.386c0.4,0,0.716-0.086,0.944-0.259c0.229-0.172,0.343-0.406,0.343-0.7
		c0-0.294-0.121-0.527-0.363-0.7c-0.243-0.172-0.724-0.348-1.442-0.525c-1.139-0.271-1.972-0.623-2.499-1.057
		s-0.791-1.115-0.791-2.044s0.334-1.645,1.001-2.149s1.5-0.756,2.499-0.756c0.653,0,1.307,0.112,1.96,0.336
		c0.653,0.224,1.223,0.541,1.708,0.952l-1.105,1.596c-0.85-0.644-1.728-0.966-2.633-0.966
		C55.278,42.123,54.991,42.209,54.781,42.381z"/>
	<path fill="#8C8B8B" d="M65.623,42.318v7.896h-2.184v-7.896h-2.772v-1.89h7.729v1.89H65.623z"/>
	<path fill="#8C8B8B" d="M78.462,48.282c1.073,0,1.95-0.424,2.632-1.274l1.4,1.442c-1.111,1.251-2.42,1.876-3.928,1.876
		c-1.507,0-2.749-0.476-3.724-1.428c-0.976-0.952-1.463-2.154-1.463-3.605s0.497-2.662,1.491-3.633
		c0.993-0.97,2.209-1.456,3.646-1.456c1.605,0,2.949,0.611,4.032,1.834l-1.358,1.54c-0.69-0.858-1.549-1.288-2.576-1.288
		c-0.821,0-1.523,0.268-2.106,0.805c-0.584,0.537-0.875,1.26-0.875,2.17c0,0.91,0.275,1.641,0.826,2.191
		S77.678,48.282,78.462,48.282z"/>
	<path fill="#8C8B8B" d="M86.945,47.688c0.364,0.453,0.854,0.679,1.47,0.679c0.616,0,1.104-0.226,1.463-0.679
		s0.539-1.071,0.539-1.855v-5.404h2.185v5.474c0,1.419-0.393,2.508-1.176,3.269c-0.784,0.761-1.788,1.141-3.011,1.141
		s-2.229-0.383-3.017-1.148c-0.789-0.766-1.183-1.853-1.183-3.262v-5.474h2.184v5.404C86.399,46.616,86.581,47.235,86.945,47.688z"
		/>
	<path fill="#8C8B8B" d="M102.947,43.676c0,1.568-0.62,2.581-1.861,3.038l2.478,3.5h-2.688l-2.17-3.122h-1.513v3.122H95.01v-9.786
		h3.71c1.521,0,2.606,0.257,3.255,0.77C102.623,41.712,102.947,42.538,102.947,43.676z M100.315,44.838
		c0.271-0.243,0.406-0.627,0.406-1.155s-0.14-0.889-0.42-1.085c-0.28-0.196-0.771-0.294-1.47-0.294h-1.639v2.898h1.597
		C99.536,45.202,100.045,45.081,100.315,44.838z"/>
	<path fill="#8C8B8B" d="M113.265,43.676c0,1.568-0.62,2.581-1.861,3.038l2.478,3.5h-2.688l-2.17-3.122h-1.513v3.122h-2.184v-9.786
		h3.71c1.521,0,2.606,0.257,3.255,0.77C112.94,41.712,113.265,42.538,113.265,43.676z M110.633,44.838
		c0.271-0.243,0.406-0.627,0.406-1.155s-0.14-0.889-0.42-1.085c-0.28-0.196-0.771-0.294-1.47-0.294h-1.639v2.898h1.597
		C109.854,45.202,110.362,45.081,110.633,44.838z"/>
	<path fill="#8C8B8B" d="M122.7,40.428v1.946h-4.872v2.016h4.382v1.862h-4.382v2.03h5.026v1.932h-7.21v-9.786H122.7z"/>
	<path fill="#8C8B8B" d="M131.787,40.428h2.185v9.786h-2.185l-4.662-6.132v6.132h-2.184v-9.786h2.044l4.802,6.3V40.428z"/>
	<path fill="#8C8B8B" d="M140.662,42.318v7.896h-2.184v-7.896h-2.772v-1.89h7.729v1.89H140.662z"/>
</g>
<line fill="none" stroke="#E5E5E4" stroke-miterlimit="10" x1="30.195" y1="60.531" x2="139.804" y2="60.531"/>
</svg>
