<?xml version="1.0" encoding="UTF-8" standalone="no"?>
<svg width="9px" height="19px" viewBox="0 0 9 19" version="1.1" xmlns="http://www.w3.org/2000/svg" xmlns:xlink="http://www.w3.org/1999/xlink" xmlns:sketch="http://www.bohemiancoding.com/sketch/ns">
    <!-- Generator: Sketch 3.3.2 (12043) - http://www.bohemiancoding.com/sketch -->
    <title>Human</title>
    <desc>Created with Sketch.</desc>
    <defs></defs>
    <g id="Page-1" stroke="none" stroke-width="1" fill="none" fill-rule="evenodd" sketch:type="MSPage">
        <g id="ProjectAnalysisOverview-Copy" sketch:type="MSArtboardGroup" transform="translate(-999.000000, -747.000000)">
            <g id="Human" sketch:type="MSLayerGroup" transform="translate(993.077999, 746.585648)">
                <g id="Group" transform="translate(1.000000, 0.000000)">
                    <g id="Capa_2"></g>
                    <g id="Capa_1_1_" transform="translate(4.549087, 0.382696)" fill="#A39F92" sketch:type="MSShapeGroup">
                        <g id="Group">
                            <path d="M4.96644909,3.29596631 L4.96644909,3.30017596 C4.98080018,3.30017596 4.99438588,3.29826248 5.00854561,3.29807114 C5.0228967,3.29826248 5.03629105,3.30017596 5.05102483,3.30017596 L5.05102483,3.29596631 C5.90654096,3.25176496 6.58620844,2.54626553 6.58620844,1.68079931 C6.58620844,0.81514174 5.90654096,0.110407696 5.05102483,0.0665890436 L5.05102483,0.0621880436 C5.03629105,0.0621880436 5.0228967,0.0641015218 5.00854561,0.0642928697 C4.99438588,0.0641015218 4.98080018,0.0621880436 4.96644909,0.0621880436 L4.96644909,0.0663976957 C4.11055027,0.110216348 3.43088279,0.814759045 3.43088279,1.68060796 C3.43088279,2.54607418 4.11074161,3.25176496 4.96644909,3.29596631 L4.96644909,3.29596631 Z" id="Shape"></path>
                            <path d="M9.0109681,9.77462101 L6.90882088,4.03284679 C6.88987744,3.9792694 6.86155796,3.93219783 6.82979423,3.88780514 C6.82902883,3.8864657 6.8280721,3.88550896 6.8273067,3.88416953 C6.81506044,3.86713957 6.80377092,3.84915287 6.78999388,3.83346235 L6.7832967,3.83346235 C6.71632496,3.75768861 6.63347136,3.70372853 6.53932823,3.67981005 L6.54200709,3.66545896 L6.50507696,3.66545896 L6.43045131,3.66545896 L6.39390388,3.66545896 L3.64289618,3.66545896 L3.60615739,3.66545896 L3.53153174,3.66545896 L3.49460161,3.66545896 L3.49708913,3.67981005 C3.40256331,3.70372853 3.31990105,3.75787996 3.25254661,3.83346235 L3.24584944,3.83346235 C3.23245509,3.84934422 3.22116557,3.86733092 3.20891931,3.88416953 C3.20796257,3.88531761 3.20719718,3.8864657 3.20643179,3.88780514 C3.17505074,3.93200648 3.14673126,3.97946074 3.12759648,4.03284679 L1.02544926,9.77462101 C0.907004956,10.1031652 1.07768722,10.465578 1.40604009,10.5840223 C1.73477565,10.7024666 2.09718844,10.5319757 2.21544139,10.2032401 L3.53612409,6.80318062 L3.29502583,10.469979 L2.09450957,17.3961963 C1.99979239,17.8209885 2.08915183,18.2233929 2.64310378,18.2957224 C3.19667305,18.3684346 3.72249687,18.0827523 3.81664,17.6581515 L5.01792166,11.6526999 L6.21882062,17.6581515 C6.31353779,18.0827523 6.83917027,18.3688173 7.39235683,18.2957224 C7.94650014,18.2233929 8.03585957,17.8209885 7.9411424,17.3961963 L6.74081749,10.4695963 L6.49991057,6.80298927 L7.82021057,10.2030488 C7.93884623,10.5319757 8.30106766,10.7024666 8.63037727,10.5840223 C8.95853879,10.4651953 9.12922105,10.1035479 9.0109681,9.77462101 L9.0109681,9.77462101 Z" id="Shape"></path>
                        </g>
                    </g>
                </g>
            </g>
        </g>
    </g>
</svg>