<?xml version="1.0" encoding="UTF-8" standalone="no"?>
<svg width="10px" height="16px" viewBox="0 0 10 16" version="1.1" xmlns="http://www.w3.org/2000/svg" xmlns:xlink="http://www.w3.org/1999/xlink" xmlns:sketch="http://www.bohemiancoding.com/sketch/ns">
    <!-- Generator: Sketch 3.3.2 (12043) - http://www.bohemiancoding.com/sketch -->
    <title>Water</title>
    <desc>Created with Sketch.</desc>
    <defs></defs>
    <g id="Page-1" stroke="none" stroke-width="1" fill="none" fill-rule="evenodd" sketch:type="MSPage">
        <g id="ProjectAnalysisOverview-Copy" sketch:type="MSArtboardGroup" transform="translate(-649.000000, -747.000000)" fill="#56CAF6">
            <g id="Water" sketch:type="MSLayerGroup" transform="translate(649.493652, 747.585648)">
                <g id="Path-58-+-Path-59" sketch:type="MSShapeGroup">
                    <g>
                        <path d="M0.101775685,10.1666913 L0.0904936542,10.1666913 C0.675920194,5.727249 4.34188908,0.00156605766 4.34188908,0.00156605766 C4.34188908,0.00156605766 8.04787204,5.727249 8.66432373,10.1666913 L8.66432373,10.1666913 L8.64822527,10.1666913 C8.71487362,10.4653538 8.75000048,10.7756356 8.75000048,11.0939893 C8.75000048,13.4712691 6.79124625,15.3984352 4.37500048,15.3984352 C1.95875469,15.3984352 4.77082723e-07,13.4712691 4.77082723e-07,11.0939893 C4.77082723e-07,10.7756356 0.035127325,10.4653538 0.101775685,10.1666913 L0.101775685,10.1666913 L0.101775685,10.1666913 Z M6.16739925,9.13641315 C6.31572408,9.87506597 6.72717337,9.28858296 6.80592498,9.02815281 C6.8846766,8.76772266 6.81125502,8.56589379 6.63098748,7.6033353 C6.45071994,6.6407768 6.16739927,5.84831556 6.16739927,5.84831556 C6.13738296,6.43257086 6.04236225,8.51373305 6.16739925,9.13641315 L6.16739925,9.13641315 Z" id="Path-58"></path>
                    </g>
                </g>
            </g>
        </g>
    </g>
</svg>